<svg xmlns="http://www.w3.org/2000/svg" viewBox="0 0 281.5 502">
  <path d="M170.19 50.75h-78c-8.01 0-14.5-6.49-14.5-14.5v-21c0-8.01 6.49-14.5 14.5-14.5h78c8.01 0 14.5 6.49 14.5 14.5v21c0 8.01-6.49 14.5-14.5 14.5Zm14.5 51.5v-21c0-8.01-6.49-14.5-14.5-14.5h-78c-8.01 0-14.5 6.49-14.5 14.5v21c0 8.01 6.49 14.5 14.5 14.5h78c8.01 0 14.5-6.49 14.5-14.5Zm-53.5-50.39v14m0 50-.44 70M97.39 18.64h-3.53v10.61h3.53c1.75 0 3.08-.44 3.96-1.33s1.33-2.21 1.33-3.96-.45-3.07-1.34-3.97c-.89-.9-2.21-1.35-3.96-1.35Zm3.89 5.28c0 1.44-.32 2.49-.97 3.15-.65.66-1.62.99-2.92.99h-2.17v-8.23h2.17c1.29 0 2.26.33 2.91.99.65.66.98 1.69.98 3.09Zm6.83 5.57c.82 0 1.52-.18 2.09-.54.57-.36 1-.85 1.29-1.47s.43-1.32.43-2.09-.14-1.47-.43-2.09-.71-1.11-1.29-1.47c-.57-.36-1.27-.54-2.09-.54s-1.52.18-2.09.54c-.57.36-1.01.85-1.3 1.47-.29.62-.43 1.32-.43 2.09s.14 1.47.43 2.09c.29.62.72 1.11 1.3 1.47.57.36 1.27.54 2.09.54Zm0-1.19c-.77 0-1.38-.27-1.81-.81-.43-.54-.64-1.24-.64-2.1s.21-1.56.64-2.09 1.03-.81 1.81-.81 1.37.27 1.8.81.64 1.23.64 2.09-.21 1.56-.64 2.1c-.42.54-1.02.81-1.8.81Zm9.13 1.19c.92 0 1.81-.22 2.66-.67l-.42-1.15c-.78.4-1.51.6-2.17.6-.85 0-1.47-.28-1.86-.8-.39-.52-.59-1.23-.59-2.11s.2-1.56.59-2.06 1.02-.77 1.89-.78c.36 0 .7.03 1 .1.3.07.62.18.96.34v-1.27a5.57 5.57 0 0 0-.97-.3c-.3-.06-.67-.09-1.08-.09-1.2 0-2.13.38-2.78 1.11-.65.73-.97 1.72-.97 2.98s.32 2.26.97 3c.65.74 1.58 1.11 2.78 1.12Zm9.48-7.98v5.74c-.73.63-1.46.95-2.18.95-.62 0-1.06-.15-1.31-.46-.25-.31-.37-.83-.37-1.55v-4.68h-1.32v4.68c0 1.15.23 1.97.69 2.48s1.17.76 2.12.76c.81 0 1.6-.33 2.37-.99v.83h1.32v-7.74h-1.32Zm12.54-.17c-.91 0-1.78.44-2.63 1.32-.21-.46-.51-.79-.91-1-.4-.21-.92-.31-1.54-.31-.78 0-1.55.33-2.31.99v-.83h-1.32v7.74h1.32v-5.73c.71-.63 1.42-.95 2.13-.95.62 0 1.04.15 1.28.46.24.3.36.82.36 1.56v4.66h1.32v-4.66c0-.38-.02-.7-.06-.97.73-.7 1.46-1.05 2.18-1.05.62 0 1.04.15 1.28.46.24.3.36.82.36 1.56v4.66h1.32v-4.66c0-1.16-.23-1.99-.68-2.49-.45-.5-1.15-.76-2.09-.76Zm5.88 4.14h5.42v-.52c0-1.19-.29-2.1-.87-2.73-.58-.63-1.38-.95-2.39-.95-.66 0-1.26.16-1.79.48-.53.32-.95.78-1.27 1.39-.31.61-.47 1.35-.47 2.22 0 .82.15 1.54.45 2.16.3.62.74 1.1 1.32 1.44s1.28.52 2.1.52c.99 0 1.91-.22 2.76-.66l-.41-1.09c-.81.38-1.56.57-2.24.57-.9 0-1.55-.26-1.96-.77-.41-.51-.62-1.2-.64-2.06Zm2.16-3.02c.59 0 1.04.16 1.34.47.31.31.49.8.53 1.45h-3.95c.22-1.28.91-1.92 2.07-1.92Zm8.82-1.12c-.81 0-1.6.33-2.37.99v-.83h-1.32v7.74h1.32v-5.73c.73-.63 1.46-.95 2.18-.95.62 0 1.06.15 1.31.46.25.31.37.83.37 1.55v4.66h1.32v-4.66c0-1.16-.23-1.99-.69-2.49-.46-.5-1.17-.76-2.12-.76Zm8.64 1.48V21.6h-1.79v-2.66h-1.32v2.66h-1.01v1.22h1.01v4.72c0 .68.14 1.17.43 1.46.28.29.78.43 1.49.43.33 0 .7-.05 1.12-.14V28.1c-.32.07-.62.11-.9.11-.32 0-.53-.07-.65-.2-.12-.14-.17-.39-.17-.76v-4.42h1.79ZM91.78 88.25h1.55l-2.84-4.59c.77-.15 1.36-.47 1.74-.97.39-.5.58-1.16.58-1.97 0-2.05-1.16-3.08-3.47-3.08h-3.71v10.61h1.36v-4.49h2.06l2.73 4.49Zm-4.79-9.42h2.35c.7 0 1.22.15 1.57.46.35.3.52.78.52 1.43 0 1.23-.7 1.85-2.09 1.85h-2.35v-3.74Zm11.63 9.66c.82 0 1.52-.18 2.09-.54.57-.36 1-.85 1.29-1.47.28-.62.43-1.32.43-2.09s-.14-1.47-.43-2.09c-.28-.62-.71-1.11-1.29-1.47-.57-.36-1.27-.54-2.09-.54s-1.52.18-2.09.54c-.57.36-1.01.85-1.3 1.47-.29.62-.43 1.32-.43 2.09s.14 1.47.43 2.09c.29.62.72 1.11 1.3 1.47.57.36 1.27.54 2.09.54Zm0-1.19c-.77 0-1.38-.27-1.81-.81s-.64-1.24-.64-2.1.21-1.56.64-2.09c.43-.54 1.03-.8 1.81-.8s1.37.27 1.8.8c.42.54.64 1.23.64 2.09s-.21 1.56-.64 2.1-1.02.81-1.8.81Zm9.2 1.19c.82 0 1.52-.18 2.09-.54.57-.36 1-.85 1.29-1.47.28-.62.43-1.32.43-2.09s-.14-1.47-.43-2.09c-.28-.62-.71-1.11-1.29-1.47-.57-.36-1.27-.54-2.09-.54s-1.52.18-2.09.54c-.57.36-1.01.85-1.3 1.47-.29.62-.43 1.32-.43 2.09s.14 1.47.43 2.09c.29.62.72 1.11 1.3 1.47.57.36 1.27.54 2.09.54Zm0-1.19c-.77 0-1.38-.27-1.81-.81s-.64-1.24-.64-2.1.21-1.56.64-2.09c.43-.54 1.03-.8 1.81-.8s1.37.27 1.8.8c.42.54.64 1.23.64 2.09s-.21 1.56-.64 2.1-1.02.81-1.8.81Zm9.23-5.47v-1.22h-1.79v-2.66h-1.32v2.66h-1.01v1.22h1.01v4.72c0 .68.14 1.17.43 1.46.28.29.78.43 1.49.43.33 0 .7-.05 1.12-.14v-1.19c-.32.07-.62.11-.9.11-.32 0-.53-.07-.65-.2-.12-.14-.18-.39-.18-.76v-4.42h1.79Zm6.52 5.25v-3.57h4.37v-1.18h-4.37v-3.51h5.07v-1.18h-6.43v10.61h6.5v-1.18h-5.14Zm9.21 1.36c.21 0 .51-.03.88-.1v-1.2c-.21.06-.44.08-.7.08-.33 0-.55-.07-.67-.2-.12-.14-.17-.39-.17-.76v-9.84h-1.32v10.19c0 .66.15 1.13.46 1.41.31.28.81.42 1.51.42Zm3.39-3.95h5.42v-.52c0-1.18-.29-2.09-.87-2.73s-1.38-.95-2.39-.95c-.66 0-1.26.16-1.79.48-.53.32-.96.78-1.27 1.39s-.47 1.35-.47 2.22c0 .82.15 1.54.45 2.16s.74 1.1 1.32 1.44c.58.34 1.28.52 2.1.52.99 0 1.91-.22 2.76-.66l-.41-1.09c-.81.38-1.56.57-2.24.57-.9 0-1.55-.26-1.96-.77-.41-.51-.62-1.2-.64-2.06Zm2.16-3.02c.59 0 1.04.16 1.34.47.31.31.49.79.53 1.45h-3.95c.22-1.28.92-1.92 2.07-1.92Zm13.85-1.12c-.91 0-1.78.44-2.63 1.32-.21-.46-.51-.79-.91-1s-.92-.32-1.54-.32c-.78 0-1.55.33-2.31.99v-.83h-1.32v7.74h1.32v-5.73c.71-.63 1.42-.95 2.13-.95.62 0 1.04.15 1.28.46.24.3.36.82.36 1.56v4.66h1.32v-4.66c0-.38-.02-.7-.06-.97.73-.7 1.46-1.05 2.18-1.05.62 0 1.04.15 1.28.46.24.3.36.82.36 1.56v4.66h1.32v-4.66c0-1.16-.23-1.99-.68-2.49-.45-.5-1.15-.76-2.09-.76Zm5.88 4.14h5.42v-.52c0-1.18-.29-2.09-.87-2.73s-1.38-.95-2.39-.95c-.66 0-1.26.16-1.79.48-.53.32-.96.78-1.27 1.39s-.47 1.35-.47 2.22c0 .82.15 1.54.45 2.16s.74 1.1 1.32 1.44c.58.34 1.28.52 2.1.52.99 0 1.91-.22 2.76-.66l-.41-1.09c-.81.38-1.56.57-2.24.57-.9 0-1.55-.26-1.96-.77-.41-.51-.62-1.2-.64-2.06Zm2.16-3.02c.59 0 1.04.16 1.35.47.31.31.48.79.53 1.45h-3.95c.22-1.28.92-1.92 2.07-1.92Zm8.82-1.12c-.81 0-1.6.33-2.37.99v-.83h-1.32v7.74h1.32v-5.73c.73-.63 1.46-.95 2.18-.95.62 0 1.06.15 1.31.46.25.31.37.83.37 1.55v4.66h1.32v-4.66c0-1.16-.23-1.99-.69-2.49-.46-.5-1.17-.76-2.12-.76Zm8.64 1.48v-1.22h-1.79v-2.66h-1.32v2.66h-1.01v1.22h1.01v4.72c0 .68.14 1.17.43 1.46.28.29.78.43 1.49.43.33 0 .7-.05 1.12-.14v-1.19c-.32.07-.62.11-.9.11-.32 0-.53-.07-.65-.2-.12-.14-.17-.39-.17-.76v-4.42h1.79Zm-63.69 16.03-.6-1.06-5.11 3.04v1.05l5.1 3.02.62-1.06-4.24-2.49 4.24-2.49Zm5.99-.71c-.82 0-1.61.33-2.37.99v-4.93h-1.32v11.84h1.32v-5.73c.73-.63 1.46-.95 2.18-.95.63 0 1.06.15 1.31.46.25.31.37.83.37 1.55v4.66h1.32v-4.66c0-1.16-.23-1.99-.69-2.49-.46-.5-1.17-.76-2.12-.76Zm8.64 1.48v-1.22h-1.79v-2.66h-1.32v2.66h-1.01v1.22h1.01v4.72c0 .68.14 1.17.43 1.46.28.29.78.43 1.49.43.33 0 .7-.05 1.12-.14v-1.19c-.32.07-.62.11-.9.11-.32 0-.53-.07-.65-.2-.12-.14-.17-.39-.17-.76v-4.42h1.79Zm10.56-1.48c-.91 0-1.78.44-2.63 1.32-.21-.46-.51-.79-.91-1s-.91-.32-1.54-.32c-.78 0-1.55.33-2.31.99v-.83h-1.32v7.74h1.32v-5.73c.71-.63 1.42-.95 2.13-.95.62 0 1.04.15 1.28.46s.36.82.36 1.56v4.66h1.32v-4.66c0-.38-.02-.7-.06-.97.73-.7 1.46-1.05 2.18-1.05.62 0 1.04.15 1.28.46s.36.82.36 1.56v4.66h1.32v-4.66c0-1.16-.23-1.99-.68-2.49-.45-.5-1.15-.76-2.09-.76Zm6.96 8.09c.21 0 .51-.03.88-.1v-1.2c-.21.06-.44.08-.7.08-.33 0-.55-.07-.67-.2-.12-.14-.17-.39-.17-.76v-9.84h-1.32v10.19c0 .66.15 1.13.46 1.41.31.28.81.42 1.51.42Zm6.52-4.89-4.24 2.49.62 1.06 5.1-3.02v-1.05l-5.11-3.04-.6 1.06 4.24 2.49Zm109.1 95.01v-21c0-8.01-6.49-14.5-14.5-14.5h-78c-8.01 0-14.5 6.49-14.5 14.5v21c0 8.01 6.49 14.5 14.5 14.5h78c8.01 0 14.5-6.49 14.5-14.5Zm-79.41-15.18v-3.57h4.37v-1.18h-4.37v-3.51h5.07v-1.18h-6.43v10.61h6.5v-1.18h-5.14Zm9.21 1.36c.21 0 .51-.03.88-.1v-1.2c-.21.06-.44.08-.7.08-.33 0-.55-.07-.67-.2-.12-.14-.17-.39-.17-.76v-9.84h-1.32v10.19c0 .66.15 1.13.46 1.41.31.28.81.42 1.51.42Zm3.39-3.95h5.42v-.52c0-1.19-.29-2.1-.87-2.73-.58-.63-1.38-.95-2.39-.95-.66 0-1.26.16-1.79.48-.53.32-.96.78-1.27 1.39-.31.61-.47 1.35-.47 2.22 0 .82.15 1.54.45 2.16.3.62.74 1.1 1.32 1.44.58.35 1.28.52 2.1.52.99 0 1.91-.22 2.76-.66l-.41-1.09c-.81.38-1.56.57-2.24.57-.9 0-1.55-.26-1.96-.77-.41-.51-.62-1.2-.64-2.06Zm2.16-3.02c.59 0 1.04.16 1.34.47.31.31.49.8.53 1.45h-3.95c.22-1.28.92-1.92 2.07-1.92Zm13.85-1.12c-.91 0-1.78.44-2.63 1.32-.21-.46-.51-.79-.91-1-.4-.21-.92-.31-1.54-.31-.78 0-1.55.33-2.31.99v-.83h-1.32v7.74h1.32v-5.73c.71-.63 1.42-.95 2.13-.95.62 0 1.04.15 1.28.46.24.3.36.82.36 1.56v4.66h1.32v-4.66c0-.38-.02-.7-.06-.97.73-.7 1.46-1.05 2.18-1.05.62 0 1.04.15 1.28.46.24.3.36.82.36 1.56v4.66h1.32v-4.66c0-1.16-.23-1.99-.68-2.49-.45-.5-1.15-.76-2.09-.76Zm5.88 4.14h5.42v-.52c0-1.19-.29-2.1-.87-2.73-.58-.63-1.38-.95-2.39-.95-.66 0-1.26.16-1.79.48-.53.32-.96.78-1.27 1.39-.31.61-.47 1.35-.47 2.22 0 .82.15 1.54.45 2.16.3.62.74 1.1 1.32 1.44.58.35 1.28.52 2.1.52.99 0 1.91-.22 2.76-.66l-.41-1.09c-.81.38-1.56.57-2.24.57-.9 0-1.55-.26-1.96-.77-.41-.51-.62-1.2-.64-2.06Zm2.16-3.02c.59 0 1.04.16 1.34.47.31.31.49.8.53 1.45h-3.95c.22-1.28.92-1.92 2.07-1.92Zm8.82-1.12c-.81 0-1.6.33-2.37.99v-.83h-1.32v7.74h1.32v-5.73c.73-.63 1.46-.95 2.18-.95.62 0 1.06.15 1.31.46.25.31.37.83.37 1.55v4.66h1.32v-4.66c0-1.16-.23-1.99-.69-2.49-.46-.5-1.17-.76-2.12-.76Zm8.64 1.48v-1.22h-1.79v-2.66h-1.32v2.66h-1.01v1.22h1.01v4.72c0 .68.14 1.17.43 1.46s.78.43 1.49.43c.33 0 .7-.05 1.12-.14v-1.19c-.32.07-.62.11-.9.11-.32 0-.53-.07-.65-.2-.12-.14-.18-.39-.18-.76v-4.42h1.79Zm-46.76 16.03-.6-1.06-5.11 3.04v1.05l5.1 3.02.62-1.06-4.24-2.49 4.24-2.49Zm5.87-.77c-.75 0-1.49.32-2.24.95v-4.83h-1.32v11.84h1.32v-.7c.74.63 1.48.94 2.24.94 1.05 0 1.88-.35 2.5-1.05.62-.7.93-1.72.93-3.05s-.31-2.35-.93-3.05c-.62-.7-1.45-1.05-2.5-1.05Zm-.18 6.99c-.68 0-1.37-.29-2.06-.87v-4.02c.67-.58 1.36-.87 2.06-.87.74 0 1.3.24 1.68.73s.57 1.2.57 2.14-.19 1.66-.57 2.15c-.38.49-.94.73-1.68.73Zm9.02 1.22c.82 0 1.52-.18 2.09-.54.57-.36 1-.85 1.29-1.47.29-.62.43-1.32.43-2.09s-.14-1.47-.43-2.09c-.28-.62-.71-1.11-1.29-1.47-.57-.36-1.27-.54-2.09-.54s-1.52.18-2.09.54-1.01.85-1.29 1.47-.43 1.32-.43 2.09.14 1.47.43 2.09.72 1.11 1.29 1.47c.57.36 1.27.54 2.09.54Zm0-1.19c-.77 0-1.38-.27-1.81-.81-.43-.54-.64-1.24-.64-2.1s.21-1.56.64-2.09c.43-.54 1.03-.81 1.81-.81s1.37.27 1.8.81.64 1.23.64 2.09-.21 1.56-.64 2.1c-.42.54-1.02.81-1.8.81Zm11.06-10.89v4.83c-.75-.63-1.49-.95-2.24-.95-1.04 0-1.88.35-2.51 1.05s-.94 1.72-.94 3.05.31 2.35.94 3.05 1.46 1.05 2.51 1.05c.76 0 1.5-.31 2.24-.94v.7h1.32v-11.84h-1.32Zm-2.07 10.86c-.74 0-1.29-.25-1.67-.73-.38-.49-.57-1.21-.57-2.15s.19-1.66.57-2.14.94-.73 1.67-.73c.69 0 1.38.29 2.07.87v4.02c-.71.58-1.4.87-2.07.87Zm10.81-6.76-2.28 5.99-2.23-5.99h-1.37l2.94 7.71-.36.94c-.21.55-.41.92-.59 1.11-.18.19-.43.28-.75.28-.24 0-.49-.03-.73-.08v1.19c.28.07.55.11.83.11.47 0 .83-.07 1.1-.2.27-.13.5-.35.69-.66.2-.31.42-.78.66-1.41l3.43-8.99h-1.33Zm6.9 3.04-4.24 2.49.62 1.06 5.1-3.02v-1.05l-5.11-3.04-.6 1.06 4.24 2.49Zm31.14 227.42v-21c0-8.01-6.49-14.5-14.5-14.5h-78c-8.01 0-14.5 6.49-14.5 14.5v21c0 8.01 6.49 14.5 14.5 14.5h78c8.01 0 14.5-6.49 14.5-14.5Zm0 65.88v-21c0-8.01-6.49-14.5-14.5-14.5h-78c-8.01 0-14.5 6.49-14.5 14.5v21c0 8.01 6.49 14.5 14.5 14.5h78c8.01 0 14.5-6.49 14.5-14.5Zm-56.46-51.89v16m-50-40.49h-48m75.04-6.68v-3.57h4.37v-1.18h-4.37v-3.51h5.07v-1.18h-6.43v10.61h6.5v-1.18h-5.14Zm9.21 1.36c.21 0 .51-.03.88-.1v-1.2c-.21.06-.44.08-.7.08-.33 0-.55-.07-.67-.2s-.17-.39-.17-.76v-9.84h-1.32v10.19c0 .66.15 1.13.46 1.41s.81.42 1.51.42Zm3.39-3.95h5.42v-.52c0-1.19-.29-2.1-.87-2.73-.58-.63-1.38-.95-2.39-.95-.66 0-1.26.16-1.79.48s-.95.78-1.27 1.39c-.31.61-.47 1.35-.47 2.22 0 .82.15 1.54.45 2.16.3.62.74 1.1 1.32 1.44.58.35 1.28.52 2.1.52.99 0 1.91-.22 2.76-.66l-.41-1.09c-.81.38-1.56.57-2.24.57-.9 0-1.55-.26-1.96-.77-.41-.51-.62-1.2-.64-2.06Zm2.16-3.02c.59 0 1.04.16 1.34.47.31.31.49.8.53 1.45h-3.95c.22-1.28.91-1.92 2.07-1.92Zm13.85-1.12c-.91 0-1.78.44-2.63 1.32-.21-.46-.51-.79-.91-1-.4-.21-.91-.31-1.54-.31-.78 0-1.55.33-2.31.99v-.83h-1.32v7.74h1.32v-5.73c.71-.63 1.42-.95 2.13-.95.62 0 1.04.15 1.28.46.24.3.36.82.36 1.56v4.66h1.32v-4.66c0-.38-.02-.71-.06-.97.73-.7 1.46-1.05 2.18-1.05.62 0 1.04.15 1.28.46.24.3.36.82.36 1.56v4.66h1.32v-4.66c0-1.16-.23-1.99-.68-2.49-.45-.5-1.15-.76-2.09-.76Zm5.88 4.14h5.42v-.52c0-1.19-.29-2.1-.87-2.73-.58-.63-1.38-.95-2.39-.95-.66 0-1.26.16-1.79.48s-.95.78-1.27 1.39c-.31.61-.47 1.35-.47 2.22 0 .82.15 1.54.45 2.16.3.62.74 1.1 1.32 1.44.58.35 1.28.52 2.1.52.99 0 1.91-.22 2.76-.66l-.41-1.09c-.81.38-1.56.57-2.24.57-.9 0-1.55-.26-1.96-.77-.41-.51-.62-1.2-.64-2.06Zm2.16-3.02c.59 0 1.04.16 1.34.47.31.31.49.8.53 1.45h-3.95c.22-1.28.91-1.92 2.07-1.92Zm8.82-1.12c-.81 0-1.6.33-2.37.99v-.83h-1.32v7.74h1.32v-5.73c.73-.63 1.46-.95 2.18-.95.63 0 1.06.15 1.31.46.25.31.37.83.37 1.55v4.66h1.32v-4.66c0-1.16-.23-1.99-.69-2.49s-1.17-.76-2.12-.76Zm8.64 1.48v-1.22h-1.79v-2.66h-1.32v2.66h-1.01v1.22h1.01v4.72c0 .68.14 1.17.43 1.46.28.29.78.43 1.49.43.33 0 .7-.05 1.12-.14v-1.19c-.32.08-.62.11-.9.11-.32 0-.53-.07-.65-.2s-.17-.39-.17-.76v-4.42h1.79Zm-32.98 16.03-.6-1.06-5.11 3.04v1.05l5.1 3.02.62-1.06-4.24-2.49 4.24-2.49Zm4.69-.55h-1.25v1.18h1.04c.51 0 .9.07 1.16.22.26.15.43.35.52.62.08.27.13.63.14 1.09-.56-.31-1.19-.46-1.89-.46-.89 0-1.59.23-2.11.69-.52.46-.78 1.11-.78 1.95 0 .54.11 1.01.34 1.41s.54.7.93.91c.39.21.83.31 1.32.31.41 0 .79-.07 1.15-.22.35-.15.71-.39 1.06-.73v.77h1.32v-4.48c0-.7-.07-1.28-.21-1.74-.14-.46-.42-.83-.85-1.11s-1.05-.41-1.88-.41Zm-.41 6.79c-.38 0-.72-.12-1-.36s-.43-.62-.43-1.14c0-.56.17-.96.5-1.2.34-.24.75-.36 1.25-.36.62 0 1.19.13 1.71.39v1.76c-.34.3-.68.52-1.03.67-.35.15-.68.22-1 .22Zm9.55-3.75-4.24 2.49.62 1.06 5.1-3.02v-1.05l-5.11-3.04-.6 1.06 4.24 2.49Zm-109.99 4.39v-21c0-8.01-6.49-14.5-14.5-14.5H15.25c-8.01 0-14.5 6.49-14.5 14.5v21c0 8.01 6.49 14.5 14.5 14.5h78c8.01 0 14.5-6.49 14.5-14.5Zm-75.81-16h1.4l-4-10.74h-1.51l-3.99 10.74h1.4l1.13-3.09h4.42l1.15 3.09Zm-5.11-4.31 1.75-4.73 1.75 4.73h-3.5Zm11.51-2.11v-1.22H36.6v-2.66h-1.32v2.66h-1.01v1.22h1.01v4.72c0 .68.14 1.17.43 1.46.28.29.78.43 1.49.43.33 0 .7-.05 1.12-.14v-1.19c-.32.07-.62.11-.9.11-.32 0-.53-.07-.65-.2-.12-.14-.18-.39-.18-.76v-4.42h1.79Zm5.22 0v-1.22h-1.79v-2.66H40.5v2.66h-1.01v1.22h1.01v4.72c0 .68.14 1.17.43 1.46.28.29.78.43 1.49.43.33 0 .7-.05 1.12-.14v-1.19c-.32.07-.62.11-.9.11-.32 0-.53-.07-.65-.2-.12-.14-.18-.39-.18-.76v-4.42h1.79Zm5.5-1.48c-.79 0-1.57.35-2.34 1.04v-.87h-1.32v7.74h1.32v-5.71c.76-.64 1.54-.97 2.34-.97h.32v-1.23h-.32Zm2-1.29h1.32v-2.11h-1.32v2.11Zm0 9.2h1.32v-7.74h-1.32v7.74Zm7.39-7.97c-.75 0-1.49.32-2.24.95v-4.83h-1.32v11.84h1.32v-.7c.74.63 1.48.94 2.24.94 1.05 0 1.88-.35 2.5-1.05s.93-1.72.93-3.05-.31-2.35-.93-3.05-1.45-1.05-2.5-1.05Zm-.18 6.99c-.68 0-1.37-.29-2.06-.87v-4.02c.67-.58 1.36-.87 2.06-.87.74 0 1.3.24 1.68.73s.57 1.2.57 2.14-.19 1.66-.57 2.15-.94.74-1.68.74Zm10.78-6.76v5.74c-.73.63-1.46.95-2.18.95-.63 0-1.06-.15-1.31-.46-.25-.31-.37-.83-.37-1.55v-4.68h-1.32v4.68c0 1.15.23 1.97.69 2.48.46.5 1.17.76 2.12.76.81 0 1.6-.33 2.37-.99v.83h1.32v-7.74H69.1Zm7.21 1.32v-1.22h-1.79v-2.66H73.2v2.66h-1.01v1.22h1.01v4.72c0 .68.14 1.17.43 1.46.28.29.78.43 1.49.43.33 0 .7-.05 1.12-.14v-1.19c-.32.07-.62.11-.9.11-.32 0-.53-.07-.65-.2-.12-.14-.18-.39-.18-.76v-4.42h1.79Zm2.74 2.66h5.42v-.52c0-1.18-.29-2.09-.87-2.73-.58-.63-1.38-.95-2.39-.95-.66 0-1.26.16-1.79.48-.53.32-.95.78-1.27 1.39s-.47 1.35-.47 2.22c0 .82.15 1.54.45 2.16s.74 1.1 1.32 1.44c.58.34 1.28.52 2.1.52.99 0 1.91-.22 2.76-.66l-.41-1.09c-.81.38-1.56.57-2.24.57-.9 0-1.55-.26-1.96-.77-.41-.51-.62-1.2-.64-2.06Zm2.16-3.02c.59 0 1.04.16 1.34.47.31.31.49.79.53 1.45h-3.95c.22-1.28.91-1.92 2.07-1.92Zm-46.3 12.98.84 4.37h1.4l-1.02-4.37h-1.22Zm3.84 0h-1.22l.84 4.37h1.4l-1.02-4.37Zm6.76 2.7c-.82 0-1.61.33-2.37.99v-4.93h-1.32v11.84h1.32v-5.73c.73-.63 1.46-.95 2.18-.95.63 0 1.06.15 1.31.46.25.31.37.83.37 1.55v4.66h1.32v-4.66c0-1.16-.23-1.99-.69-2.49-.46-.5-1.17-.76-2.12-.76Zm8.92 0c-.79 0-1.57.35-2.34 1.04v-.87h-1.32v7.74h1.32v-5.71c.76-.64 1.54-.97 2.34-.97h.32v-1.23h-.32Zm2.9 4.14h5.42v-.52c0-1.18-.29-2.09-.87-2.73-.58-.63-1.38-.95-2.39-.95-.66 0-1.26.16-1.79.48-.53.32-.95.78-1.27 1.39s-.47 1.35-.47 2.22c0 .82.15 1.54.45 2.16s.74 1.1 1.32 1.44c.58.34 1.28.52 2.1.52.99 0 1.91-.22 2.76-.66l-.41-1.09c-.81.38-1.56.57-2.24.57-.9 0-1.55-.26-1.96-.77-.41-.51-.62-1.2-.64-2.06Zm2.16-3.02c.59 0 1.04.16 1.34.47.31.31.49.79.53 1.45h-3.95c.22-1.28.91-1.92 2.07-1.92Zm7.5-4.02c.25 0 .49.03.7.08v-1.2a4.8 4.8 0 0 0-.88-.1c-.7 0-1.2.14-1.51.42-.31.28-.46.75-.46 1.41v2.45h-.95v1.23h.95v6.51h1.32v-6.51h1.54v-1.23h-1.54v-2.1c0-.37.06-.63.17-.76.12-.14.34-.2.67-.2Zm1.85 4.56h1.22l1.02-4.37h-1.4l-.84 4.37Zm2.62 0h1.22l1.02-4.37h-1.4l-.84 4.37Zm130.4 44.23h-7.76v1.22h3.19v9.39h1.37v-9.39h3.19v-1.22Zm2.72 6.85H210v-.52c0-1.18-.29-2.09-.87-2.73-.58-.63-1.38-.95-2.39-.95-.66 0-1.26.16-1.79.48s-.95.78-1.27 1.39-.47 1.35-.47 2.22c0 .82.15 1.54.45 2.16.3.62.74 1.1 1.32 1.44.58.34 1.28.52 2.1.52.99 0 1.91-.22 2.76-.66l-.41-1.09c-.81.38-1.56.57-2.24.57-.9 0-1.55-.26-1.96-.77-.41-.51-.62-1.2-.64-2.06Zm2.16-3.02c.59 0 1.04.16 1.34.47.31.31.49.8.53 1.45h-3.95c.22-1.28.91-1.92 2.07-1.92Zm11.54 6.79-2.79-3.93 2.66-3.81h-1.55l-1.89 2.77-1.88-2.77h-1.58l2.59 3.7-2.73 4.05h1.58l1.96-3.01 2.04 3.01h1.58Zm5.12-6.43v-1.22h-1.79v-2.66h-1.32v2.66h-1.01v1.22h1.01v4.72c0 .68.14 1.17.43 1.46s.78.43 1.49.43c.33 0 .7-.05 1.12-.14v-1.19c-.32.07-.62.11-.9.11-.32 0-.53-.07-.65-.2-.12-.14-.18-.39-.18-.76v-4.42h1.79Zm-46.56 12.61.84 4.37h1.4l-1.02-4.37h-1.22Zm3.84 0h-1.22l.84 4.37h1.4l-1.02-4.37Zm11.72 0-3.46 4.84-3.46-4.84H184v10.61h1.36v-8.55l3.22 4.52h.71l3.25-4.52v8.55h1.36v-10.61h-1.5Zm9.16 2.87-2.28 5.99-2.23-5.99h-1.37l2.94 7.71-.36.94c-.21.55-.41.92-.59 1.11s-.43.28-.75.28c-.24 0-.49-.03-.73-.08v1.19c.28.07.55.11.83.11.47 0 .83-.07 1.1-.2.27-.13.5-.35.69-.66.2-.31.42-.78.66-1.41l3.43-8.99h-1.33Zm7.54 6.53v-9.39h-1.36v10.61h5.8v-1.22h-4.44Zm6.26-7.98h1.32v-2.11h-1.32v2.11Zm0 9.2h1.32v-7.74h-1.32v7.74Zm7.52-7.91c-.81 0-1.6.33-2.37.99v-.83h-1.32v7.74h1.32v-5.73c.73-.63 1.46-.95 2.18-.95.63 0 1.06.15 1.31.46.25.31.37.83.37 1.55v4.66h1.32v-4.66c0-1.16-.23-1.99-.69-2.49-.46-.5-1.17-.76-2.12-.76Zm10.25 7.91h1.6l-3.53-4.48 3.08-3.16h-1.65l-3.16 3.26v-7.46h-1.32v11.84h1.32v-2.71l.84-.85 2.83 3.57Zm2.73-6.24h1.22l1.02-4.37h-1.4l-.84 4.37Zm2.62 0h1.22l1.02-4.37h-1.4l-.84 4.37ZM108.84 195.36v-21c0-8.01-6.49-14.5-14.5-14.5h-78c-8.01 0-14.5 6.49-14.5 14.5v21c0 8.01 6.49 14.5 14.5 14.5h78c8.01 0 14.5-6.49 14.5-14.5Zm0 66v-21c0-8.01-6.49-14.5-14.5-14.5h-78c-8.01 0-14.5 6.49-14.5 14.5v21c0 8.01 6.49 14.5 14.5 14.5h78c8.01 0 14.5-6.49 14.5-14.5Zm0 66v-21c0-8.01-6.49-14.5-14.5-14.5h-78c-8.01 0-14.5 6.49-14.5 14.5v21c0 8.01 6.49 14.5 14.5 14.5h78c8.01 0 14.5-6.49 14.5-14.5Zm-53.5-117.5v16m0 50v16M26.43 179.97v-3.57h4.37v-1.18h-4.37v-3.51h5.07v-1.18h-6.43v10.61h6.5v-1.18h-5.14Zm9.21 1.36c.21 0 .51-.03.88-.1v-1.2c-.21.06-.44.08-.7.08-.33 0-.55-.07-.67-.2s-.17-.39-.17-.76v-9.84h-1.32v10.19c0 .66.15 1.13.46 1.41.31.28.81.42 1.51.42Zm3.39-3.95h5.42v-.52c0-1.19-.29-2.1-.87-2.73-.58-.63-1.38-.95-2.39-.95-.66 0-1.26.16-1.79.48-.53.32-.95.78-1.27 1.39-.31.61-.47 1.35-.47 2.22 0 .82.15 1.54.45 2.16.3.62.74 1.1 1.32 1.44s1.28.52 2.1.52c.99 0 1.91-.22 2.76-.66l-.41-1.09c-.81.38-1.56.57-2.24.57-.9 0-1.55-.26-1.96-.77s-.62-1.2-.64-2.06Zm2.16-3.02c.59 0 1.04.16 1.34.47.31.31.49.8.53 1.45h-3.95c.22-1.28.91-1.92 2.07-1.92Zm13.85-1.12c-.91 0-1.78.44-2.63 1.32-.21-.46-.51-.79-.91-1-.4-.21-.91-.31-1.54-.31-.78 0-1.55.33-2.31.99v-.83h-1.32v7.74h1.32v-5.73c.71-.63 1.42-.95 2.13-.95.62 0 1.04.15 1.28.46.24.3.36.82.36 1.56v4.66h1.32v-4.66c0-.38-.02-.7-.06-.97.73-.7 1.46-1.05 2.18-1.05.62 0 1.04.15 1.28.46.24.3.36.82.36 1.56v4.66h1.32v-4.66c0-1.16-.23-1.99-.68-2.49-.45-.5-1.15-.76-2.09-.76Zm5.88 4.14h5.42v-.52c0-1.19-.29-2.1-.87-2.73-.58-.63-1.38-.95-2.39-.95-.66 0-1.26.16-1.79.48-.53.32-.95.78-1.27 1.39-.31.61-.47 1.35-.47 2.22 0 .82.15 1.54.45 2.16.3.62.74 1.1 1.32 1.44s1.28.52 2.1.52c.99 0 1.91-.22 2.76-.66l-.41-1.09c-.81.38-1.56.57-2.24.57-.9 0-1.55-.26-1.96-.77s-.62-1.2-.64-2.06Zm2.16-3.02c.59 0 1.04.16 1.34.47.31.31.49.8.53 1.45H61c.22-1.28.91-1.92 2.07-1.92Zm8.82-1.12c-.81 0-1.6.33-2.37.99v-.83h-1.32v7.74h1.32v-5.73c.73-.63 1.46-.95 2.18-.95.63 0 1.06.15 1.31.46.25.31.37.83.37 1.55v4.66h1.32v-4.66c0-1.16-.23-1.99-.69-2.49-.46-.5-1.17-.76-2.12-.76Zm8.64 1.48v-1.22h-1.79v-2.66h-1.32v2.66h-1.01v1.22h1.01v4.72c0 .68.14 1.17.43 1.46.28.29.78.43 1.49.43.33 0 .7-.05 1.12-.14V180c-.32.07-.62.11-.9.11-.32 0-.53-.07-.65-.2s-.18-.39-.18-.76v-4.42h1.79Zm-46.07 16.03-.6-1.06-5.11 3.04v1.05l5.1 3.02.62-1.06-4.24-2.49 4.24-2.49Zm5.99-.71c-.82 0-1.61.33-2.37.99v-4.93h-1.32v11.84h1.32v-5.73c.73-.63 1.46-.95 2.18-.95.63 0 1.06.15 1.31.46.25.31.37.83.37 1.55v4.66h1.32v-4.66c0-1.16-.23-1.99-.69-2.49-.46-.5-1.17-.76-2.12-.76Zm6.16 4.14h5.42v-.52c0-1.19-.29-2.1-.87-2.73-.58-.63-1.38-.95-2.39-.95-.66 0-1.26.16-1.79.48-.53.32-.95.78-1.27 1.39-.31.61-.47 1.35-.47 2.22 0 .82.15 1.54.45 2.16.3.62.74 1.1 1.32 1.44s1.28.52 2.1.52c.99 0 1.91-.22 2.76-.66l-.41-1.09c-.81.38-1.56.57-2.24.57-.9 0-1.55-.26-1.96-.77s-.62-1.2-.64-2.06Zm2.16-3.02c.59 0 1.04.16 1.34.47.31.31.49.8.53 1.45H46.7c.22-1.28.91-1.92 2.07-1.92Zm7.52-.95h-1.25v1.18h1.04c.51 0 .9.07 1.16.22.26.15.43.35.52.62.08.27.13.63.14 1.09-.56-.31-1.19-.46-1.89-.46-.89 0-1.59.23-2.11.69-.52.46-.78 1.11-.78 1.95 0 .54.11 1.01.34 1.41.23.4.54.7.93.91.39.21.83.31 1.32.31.41 0 .79-.07 1.15-.22.35-.15.71-.39 1.06-.73v.77h1.32v-4.48c0-.7-.07-1.28-.21-1.74-.14-.46-.42-.83-.85-1.11-.43-.27-1.05-.41-1.88-.41Zm-.41 6.79c-.38 0-.72-.12-1-.36s-.43-.62-.43-1.14c0-.56.17-.96.5-1.2s.75-.36 1.25-.36c.62 0 1.19.13 1.71.39v1.76c-.34.3-.68.52-1.03.67s-.68.22-1 .22Zm10.72-10.89v4.83c-.75-.63-1.49-.95-2.24-.95-1.05 0-1.88.35-2.51 1.05-.63.7-.94 1.72-.94 3.05s.31 2.35.94 3.05c.62.7 1.46 1.05 2.51 1.05.76 0 1.5-.31 2.24-.94v.7h1.32v-11.84h-1.32Zm-2.07 10.86c-.74 0-1.29-.25-1.67-.73-.38-.49-.57-1.21-.57-2.15s.19-1.66.57-2.14.94-.73 1.67-.73c.69 0 1.38.29 2.07.87v4.02c-.71.58-1.4.87-2.07.87Zm9.94-3.72-4.24 2.49.62 1.06 5.1-3.02v-1.05l-5.11-3.04-.6 1.06 4.24 2.49Zm-45.04 50.73v-3.57h4.37v-1.18h-4.37v-3.51h5.07v-1.18h-6.43v10.61h6.5v-1.18h-5.14Zm9.21 1.36c.21 0 .51-.03.88-.1v-1.2c-.21.06-.44.08-.7.08-.33 0-.55-.07-.67-.2s-.17-.39-.17-.76v-9.84h-1.32v10.19c0 .66.15 1.13.46 1.41.31.28.81.42 1.51.42Zm3.39-3.95h5.42v-.52c0-1.19-.29-2.1-.87-2.73-.58-.63-1.38-.95-2.39-.95-.66 0-1.26.16-1.79.48-.53.32-.95.78-1.27 1.39-.31.61-.47 1.35-.47 2.22 0 .82.15 1.54.45 2.16.3.62.74 1.1 1.32 1.44s1.28.52 2.1.52c.99 0 1.91-.22 2.76-.66l-.41-1.09c-.81.38-1.56.57-2.24.57-.9 0-1.55-.26-1.96-.77s-.62-1.2-.64-2.06Zm2.16-3.02c.59 0 1.04.16 1.34.47.31.31.49.8.53 1.45h-3.95c.22-1.28.91-1.92 2.07-1.92Zm13.85-1.12c-.91 0-1.78.44-2.63 1.32-.21-.46-.51-.79-.91-1-.4-.21-.91-.31-1.54-.31-.78 0-1.55.33-2.31.99v-.83h-1.32v7.74h1.32v-5.73c.71-.63 1.42-.95 2.13-.95.62 0 1.04.15 1.28.46.24.3.36.82.36 1.56v4.66h1.32v-4.66c0-.38-.02-.7-.06-.97.73-.7 1.46-1.05 2.18-1.05.62 0 1.04.15 1.28.46.24.3.36.82.36 1.56v4.66h1.32v-4.66c0-1.16-.23-1.99-.68-2.49-.45-.5-1.15-.76-2.09-.76Zm5.88 4.14h5.42v-.52c0-1.19-.29-2.1-.87-2.73-.58-.63-1.38-.95-2.39-.95-.66 0-1.26.16-1.79.48-.53.32-.95.78-1.27 1.39-.31.61-.47 1.35-.47 2.22 0 .82.15 1.54.45 2.16.3.62.74 1.1 1.32 1.44s1.28.52 2.1.52c.99 0 1.91-.22 2.76-.66l-.41-1.09c-.81.38-1.56.57-2.24.57-.9 0-1.55-.26-1.96-.77s-.62-1.2-.64-2.06Zm2.16-3.02c.59 0 1.04.16 1.34.47.31.31.49.8.53 1.45h-3.95c.22-1.28.91-1.92 2.07-1.92Zm8.82-1.12c-.81 0-1.6.33-2.37.99v-.83h-1.32v7.74h1.32v-5.73c.73-.63 1.46-.95 2.18-.95.63 0 1.06.15 1.31.46.25.31.37.83.37 1.55v4.66h1.32v-4.66c0-1.16-.23-1.99-.69-2.49-.46-.5-1.17-.76-2.12-.76Zm8.64 1.48v-1.22h-1.79v-2.66h-1.32v2.66h-1.01v1.22h1.01v4.72c0 .68.14 1.17.43 1.46.28.29.78.43 1.49.43.33 0 .7-.05 1.12-.14v-1.19c-.32.07-.62.11-.9.11-.32 0-.53-.07-.65-.2s-.18-.39-.18-.76v-4.42h1.79Zm-42.7 16.03-.6-1.06-5.11 3.04v1.05l5.1 3.02.62-1.06-4.24-2.49 4.24-2.49Zm5.68.77v-1.22h-1.79v-2.66h-1.32v2.66h-1.01v1.22h1.01v4.72c0 .68.14 1.17.43 1.46.28.29.78.43 1.49.43.33 0 .7-.05 1.12-.14v-1.19c-.32.07-.62.11-.9.11-.32 0-.53-.07-.65-.2s-.18-.39-.18-.76v-4.42h1.79Zm1.85-2.77h1.32v-2.11h-1.32v2.11Zm0 9.2h1.32v-7.74h-1.32v7.74Zm7.21-6.43v-1.22H53.8v-2.66h-1.32v2.66h-1.01v1.22h1.01v4.72c0 .68.14 1.17.43 1.46.28.29.78.43 1.49.43.33 0 .7-.05 1.12-.14v-1.19c-.32.07-.62.11-.9.11-.32 0-.53-.07-.65-.2s-.18-.39-.18-.76v-4.42h1.79Zm3.82 6.61c.21 0 .51-.03.88-.1v-1.21c-.21.06-.44.08-.7.08-.33 0-.55-.07-.67-.2s-.17-.39-.17-.76v-9.84h-1.32v10.19c0 .66.15 1.13.46 1.41.31.28.81.42 1.51.42Zm3.39-3.95h5.42v-.52c0-1.19-.29-2.1-.87-2.73-.58-.63-1.38-.95-2.39-.95-.66 0-1.26.16-1.79.48-.53.32-.95.78-1.27 1.39-.31.61-.47 1.35-.47 2.22 0 .82.15 1.54.45 2.16.3.62.74 1.1 1.32 1.44s1.28.52 2.1.52c.99 0 1.91-.22 2.76-.66l-.41-1.09c-.81.38-1.56.57-2.24.57-.9 0-1.55-.26-1.96-.77-.41-.51-.62-1.2-.64-2.06Zm2.16-3.02c.59 0 1.04.16 1.34.47.31.31.49.8.53 1.45h-3.95c.22-1.28.91-1.92 2.07-1.92Zm9.17 2.09-4.24 2.49.62 1.06 5.1-3.02v-1.05l-5.11-3.04-.6 1.06 4.24 2.49Zm-25.66 43.29h-7.76v1.22h3.19v9.39h1.37v-9.39h3.19v-1.22Zm2.72 6.85h5.42v-.52c0-1.19-.29-2.1-.87-2.73-.58-.63-1.38-.95-2.39-.95-.66 0-1.26.16-1.79.47-.53.32-.95.78-1.27 1.39-.31.61-.47 1.35-.47 2.22 0 .82.15 1.54.45 2.16s.74 1.1 1.32 1.44 1.28.52 2.1.52c.99 0 1.91-.22 2.76-.66l-.41-1.09c-.81.38-1.56.57-2.24.57-.9 0-1.55-.26-1.96-.77-.41-.51-.62-1.2-.64-2.06Zm2.16-3.02c.59 0 1.04.16 1.34.47.31.31.49.79.53 1.45h-3.95c.22-1.28.91-1.92 2.07-1.92Zm11.54 6.79-2.79-3.93 2.66-3.81h-1.55l-1.89 2.77-1.88-2.77h-1.58l2.59 3.7-2.73 4.04h1.58l1.96-3.01 2.04 3.01h1.58Zm5.12-6.43v-1.22h-1.79v-2.66H66.9v2.66h-1.01v1.22h1.01v4.72c0 .68.14 1.17.43 1.46.28.29.78.43 1.49.43.33 0 .7-.05 1.12-.14v-1.19c-.32.08-.62.11-.9.11-.32 0-.53-.07-.65-.2s-.18-.39-.18-.76v-4.42H70Zm-47.45 12.61.84 4.37h1.4l-1.02-4.37h-1.22Zm3.84 0h-1.22l.84 4.37h1.4l-1.02-4.37Zm11.72 0-3.46 4.84-3.46-4.84h-1.48v10.61h1.36v-8.55l3.22 4.52h.71l3.25-4.52v8.55h1.36v-10.61h-1.5Zm9.16 2.87L45 326.21l-2.23-5.99H41.4l2.94 7.71-.36.94c-.21.55-.41.92-.59 1.11-.18.19-.43.28-.75.28-.24 0-.49-.03-.73-.08v1.19c.28.08.56.11.83.11.47 0 .83-.07 1.1-.2s.5-.35.69-.66c.2-.31.42-.78.66-1.41l3.43-8.99h-1.33Zm13.01-2.87h-7.76v1.22h3.19v9.39h1.37v-9.39h3.19v-1.22Zm1.82 1.41h1.32v-2.11h-1.32v2.11Zm0 9.2h1.32v-7.74h-1.32v7.74Zm7.21-6.43v-1.22h-1.79v-2.66h-1.32v2.66H65.2v1.22h1.01v4.72c0 .68.14 1.17.43 1.46.28.29.78.43 1.49.43.33 0 .7-.05 1.12-.14v-1.19c-.32.07-.62.11-.9.11-.32 0-.53-.07-.65-.2s-.18-.39-.18-.76v-4.42h1.79Zm3.82 6.61c.21 0 .51-.03.88-.1v-1.21c-.21.06-.44.08-.7.08-.33 0-.55-.07-.67-.2s-.17-.39-.17-.76v-9.84h-1.32v10.19c0 .66.15 1.13.46 1.41.31.28.81.42 1.51.42Zm3.39-3.95h5.42v-.52c0-1.18-.29-2.09-.87-2.73-.58-.63-1.38-.95-2.39-.95-.66 0-1.26.16-1.79.48-.53.32-.95.78-1.27 1.39s-.47 1.35-.47 2.22c0 .82.15 1.54.45 2.16.3.62.74 1.1 1.32 1.44s1.28.52 2.1.52c.99 0 1.91-.22 2.76-.66l-.41-1.09c-.81.38-1.56.57-2.24.57-.9 0-1.55-.26-1.96-.77-.41-.51-.62-1.2-.64-2.06Zm2.16-3.02c.59 0 1.04.16 1.34.47.31.31.49.8.53 1.45h-3.95c.22-1.28.91-1.92 2.07-1.92Zm4.68.55h1.22l1.02-4.37h-1.4l-.84 4.37Zm2.62 0h1.22l1.02-4.37h-1.4l-.84 4.37Zm176.49-52.34v-21c0-8.01-6.49-14.5-14.5-14.5h-78c-8.01 0-14.5 6.49-14.5 14.5v21c0 8.01 6.49 14.5 14.5 14.5h78c8.01 0 14.5-6.49 14.5-14.5Zm0 66v-21c0-8.01-6.49-14.5-14.5-14.5h-78c-8.01 0-14.5 6.49-14.5 14.5v21c0 8.01 6.49 14.5 14.5 14.5h78c8.01 0 14.5-6.49 14.5-14.5Zm-53.5-51.5v16m-26.91-46.89v-3.57h4.37v-1.18h-4.37v-3.51h5.07v-1.18h-6.43v10.61h6.5v-1.18h-5.14Zm9.21 1.36c.21 0 .51-.03.88-.1v-1.2c-.21.06-.44.08-.7.08-.33 0-.55-.07-.67-.2-.12-.14-.17-.39-.17-.76v-9.84h-1.32v10.19c0 .66.15 1.13.46 1.41.31.28.81.42 1.51.42Zm3.39-3.95h5.42v-.52c0-1.19-.29-2.1-.87-2.73-.58-.63-1.38-.95-2.39-.95-.66 0-1.26.16-1.79.48-.53.32-.95.78-1.27 1.39-.31.61-.47 1.35-.47 2.22 0 .82.15 1.54.45 2.16.3.62.74 1.1 1.32 1.44.58.35 1.28.52 2.1.52.99 0 1.91-.22 2.76-.66l-.41-1.09c-.81.38-1.56.57-2.24.57-.9 0-1.55-.26-1.96-.77-.41-.51-.62-1.2-.64-2.06Zm2.16-3.02c.59 0 1.04.16 1.34.47.31.31.49.8.53 1.45h-3.95c.22-1.28.92-1.92 2.07-1.92Zm13.85-1.12c-.91 0-1.78.44-2.63 1.32-.21-.46-.51-.79-.91-1-.4-.21-.92-.31-1.54-.31-.78 0-1.55.33-2.31.99v-.83h-1.32v7.74h1.32v-5.73c.71-.63 1.42-.95 2.13-.95.62 0 1.04.15 1.28.46.24.3.36.82.36 1.56v4.66h1.32v-4.66c0-.38-.02-.7-.06-.97.73-.7 1.46-1.05 2.18-1.05.62 0 1.04.15 1.28.46.24.3.36.82.36 1.56v4.66h1.32v-4.66c0-1.16-.23-1.99-.68-2.49-.45-.5-1.15-.76-2.09-.76Zm5.88 4.14h5.42v-.52c0-1.19-.29-2.1-.87-2.73-.58-.63-1.38-.95-2.39-.95-.66 0-1.26.16-1.79.48-.53.32-.96.78-1.27 1.39-.31.61-.47 1.35-.47 2.22 0 .82.15 1.54.45 2.16.3.62.74 1.1 1.32 1.44.58.35 1.28.52 2.1.52.99 0 1.91-.22 2.76-.66l-.41-1.09c-.81.38-1.56.57-2.24.57-.9 0-1.55-.26-1.96-.77-.41-.51-.62-1.2-.64-2.06Zm2.16-3.02c.59 0 1.04.16 1.34.47.31.31.49.8.53 1.45h-3.95c.22-1.28.91-1.92 2.07-1.92Zm8.82-1.12c-.81 0-1.6.33-2.37.99v-.83h-1.32v7.74h1.32v-5.73c.73-.63 1.46-.95 2.18-.95.62 0 1.06.15 1.31.46.25.31.37.83.37 1.55v4.66h1.32v-4.66c0-1.16-.23-1.99-.69-2.49-.46-.5-1.17-.76-2.12-.76Zm8.64 1.48v-1.22h-1.79v-2.66h-1.32v2.66h-1.01v1.22h1.01v4.72c0 .68.14 1.17.43 1.46s.78.43 1.49.43c.33 0 .7-.05 1.12-.14v-1.19c-.32.07-.62.11-.9.11-.32 0-.53-.07-.65-.2s-.18-.39-.18-.76v-4.42h1.79Zm-37.55 16.03-.6-1.06-5.11 3.04v1.05l5.1 3.02.62-1.06-4.24-2.49 4.24-2.49Zm5.99-.71c-.82 0-1.61.33-2.37.99v-4.93h-1.32v11.84h1.32v-5.73c.73-.63 1.46-.95 2.18-.95.63 0 1.06.15 1.31.46.25.31.37.83.37 1.55v4.66h1.32v-4.66c0-1.16-.23-1.99-.69-2.49-.46-.5-1.17-.76-2.12-.76Zm8.57 6.69v-8.22h-2.87v1.22h1.53v7h-1.81v1.22h4.97v-1.22h-1.82Zm8.43-3.49-4.24 2.49.62 1.06 5.1-3.02v-1.05l-5.11-3.04-.6 1.06 4.24 2.49Zm-20.52 42.29h-7.76v1.22h3.19v9.39h1.37v-9.39h3.19v-1.22Zm2.72 6.85h5.42v-.52c0-1.19-.29-2.1-.87-2.73-.58-.63-1.38-.95-2.39-.95-.66 0-1.26.16-1.79.47-.53.32-.95.78-1.27 1.39-.31.61-.47 1.35-.47 2.22 0 .82.15 1.54.45 2.16s.74 1.1 1.32 1.44c.58.35 1.28.52 2.1.52.99 0 1.91-.22 2.76-.66l-.41-1.09c-.81.38-1.56.57-2.24.57-.9 0-1.55-.26-1.96-.77-.41-.51-.62-1.2-.64-2.06Zm2.16-3.02c.59 0 1.04.16 1.34.47.31.31.49.79.53 1.45h-3.95c.22-1.28.91-1.92 2.07-1.92Zm11.54 6.79-2.79-3.93 2.66-3.81h-1.55l-1.89 2.77-1.88-2.77h-1.58l2.59 3.7-2.73 4.04h1.58l1.96-3.01 2.04 3.01h1.58Zm5.12-6.43v-1.22h-1.79v-2.66h-1.32v2.66h-1.01v1.22h1.01v4.72c0 .68.14 1.17.43 1.46s.78.43 1.49.43c.33 0 .7-.05 1.12-.14v-1.19c-.32.08-.62.11-.9.11-.32 0-.53-.07-.65-.2s-.18-.39-.18-.76v-4.42h1.79Zm-56.97 12.61.84 4.37h1.4l-1.02-4.37h-1.22Zm3.84 0h-1.22l.84 4.37h1.4l-1.02-4.37Zm11.72 0-3.46 4.84-3.46-4.84h-1.48v10.61h1.36v-8.55l3.22 4.52h.71l3.25-4.52v8.55h1.36v-10.61h-1.5Zm9.16 2.87-2.28 5.99-2.23-5.99h-1.37l2.94 7.71-.36.94c-.21.55-.41.92-.59 1.11-.18.19-.43.28-.75.28-.24 0-.49-.03-.73-.08v1.19c.28.08.56.11.83.11.47 0 .83-.07 1.1-.2.27-.13.5-.35.69-.66.2-.31.42-.78.66-1.41l3.43-8.99h-1.33Zm12.89-2.87v4.66h-5.35v-4.66h-1.36v10.61h1.36v-4.72h5.35v4.72h1.36v-10.61h-1.36Zm5.01 6.85h5.42v-.52c0-1.18-.29-2.09-.87-2.73-.58-.63-1.38-.95-2.39-.95-.66 0-1.26.16-1.79.48s-.95.78-1.27 1.39-.47 1.35-.47 2.22c0 .82.15 1.54.45 2.16.3.62.74 1.1 1.32 1.44.58.34 1.28.52 2.1.52.99 0 1.91-.22 2.76-.66l-.41-1.09c-.81.38-1.56.57-2.24.57-.9 0-1.55-.26-1.96-.77-.41-.51-.62-1.2-.64-2.06Zm2.16-3.02c.59 0 1.04.16 1.34.47.31.31.49.8.53 1.45h-3.95c.22-1.28.91-1.92 2.07-1.92Zm7.52-.95h-1.25v1.18h1.04c.51 0 .9.07 1.16.22.26.14.43.35.52.62.08.27.13.63.14 1.09-.56-.31-1.19-.46-1.89-.46-.89 0-1.59.23-2.11.69s-.78 1.11-.78 1.95c0 .54.11 1.01.34 1.41.23.4.54.7.93.91.39.21.83.31 1.32.31.41 0 .79-.07 1.15-.22.35-.15.71-.39 1.06-.73v.77h1.32v-4.48c0-.7-.07-1.28-.21-1.74s-.42-.83-.85-1.11c-.43-.27-1.05-.41-1.88-.41Zm-.41 6.79c-.38 0-.72-.12-1-.36-.29-.24-.43-.62-.43-1.14 0-.56.17-.96.5-1.2s.75-.36 1.25-.36c.62 0 1.18.13 1.71.39v1.76c-.34.3-.68.52-1.03.67-.35.15-.68.22-1 .22Zm10.72-10.89v4.83c-.75-.63-1.49-.95-2.24-.95-1.04 0-1.88.35-2.51 1.05-.62.7-.94 1.72-.94 3.05s.31 2.35.94 3.05 1.46 1.05 2.51 1.05c.76 0 1.5-.31 2.24-.94v.7h1.32v-11.84h-1.32Zm-2.07 10.86c-.74 0-1.29-.25-1.67-.73-.38-.49-.57-1.21-.57-2.15s.19-1.66.57-2.14c.38-.49.94-.73 1.67-.73.69 0 1.38.29 2.07.87v4.02c-.71.58-1.4.87-2.07.87Zm6.8-2.79h5.42v-.52c0-1.18-.29-2.09-.87-2.73-.58-.63-1.38-.95-2.39-.95-.66 0-1.26.16-1.79.48s-.95.78-1.27 1.39-.47 1.35-.47 2.22c0 .82.15 1.54.45 2.16.3.62.74 1.1 1.32 1.44.58.34 1.28.52 2.1.52.99 0 1.91-.22 2.76-.66l-.41-1.09c-.81.38-1.56.57-2.24.57-.9 0-1.55-.26-1.96-.77-.41-.51-.62-1.2-.64-2.06Zm2.16-3.02c.59 0 1.04.16 1.34.47.31.31.49.8.53 1.45h-3.95c.22-1.28.91-1.92 2.07-1.92Zm8.79-1.12c-.79 0-1.57.35-2.34 1.04v-.87h-1.32v7.74h1.32v-5.71c.76-.64 1.54-.97 2.34-.97h.32v-1.23h-.32Zm1.54 1.67h1.22l1.02-4.37h-1.4l-.84 4.37Zm2.62 0h1.22l1.02-4.37h-1.4l-.84 4.37ZM108.75 184.86h46m107 226h8.9c5.58 0 10.1-4.52 10.1-10.1V194.77c0-5.48-4.44-9.91-9.91-9.91h-8.09m18 74h-18" style="fill:none;stroke:#231f20;stroke-miterlimit:10;stroke-width:1.5px"/>
</svg>
